<svg width="44" height="44" viewBox="0 0 44 44" fill="none" xmlns="http://www.w3.org/2000/svg">
<g clip-path="url(#clip0_1_25)">
<path d="M16.5 34.8333C8.61667 37.4 8.61667 30.25 5.5 29.3333M27.5 38.5V32.0833C27.5 30.25 27.6833 29.5167 26.5833 28.4167C31.7167 27.8667 36.6667 25.85 36.6667 17.4167C36.6644 15.2258 35.8097 13.1217 34.2833 11.55C34.9992 9.64694 34.9333 7.53799 34.1 5.68333C34.1 5.68333 32.0833 5.13333 27.6833 8.06667C23.9566 7.09608 20.0434 7.09608 16.3167 8.06667C11.9167 5.13333 9.9 5.68333 9.9 5.68333C9.06672 7.53799 9.00081 9.64694 9.71667 11.55C8.19033 13.1217 7.33557 15.2258 7.33333 17.4167C7.33333 25.85 12.2833 27.8667 17.4167 28.4167C16.3167 29.5167 16.3167 30.6167 16.5 32.0833V38.5" stroke="#FFD701" stroke-width="2.75" stroke-linecap="round" stroke-linejoin="round"/>
</g>
<defs>
<clipPath id="clip0_1_25">
<rect width="44" height="44" fill="white"/>
</clipPath>
</defs>
</svg>
