<svg width="44" height="44" viewBox="0 0 44 44" fill="none" xmlns="http://www.w3.org/2000/svg">
<g clip-path="url(#clip0_1_16)">
<path d="M32.6667 7.33333H10.6667C8.6417 7.33333 7.00008 8.97495 7.00008 11V33C7.00008 35.025 8.6417 36.6667 10.6667 36.6667H32.6667C34.6918 36.6667 36.3334 35.025 36.3334 33V11C36.3334 8.97495 34.6918 7.33333 32.6667 7.33333Z" stroke="#FFD701" stroke-width="2.75" stroke-linecap="round" stroke-linejoin="round"/>
<path d="M14.6667 20.1667V29.3333" stroke="#FFD701" stroke-width="2.75" stroke-linecap="round" stroke-linejoin="round"/>
<path d="M14.6667 14.6667V14.685" stroke="#FFD701" stroke-width="2.75" stroke-linecap="round" stroke-linejoin="round"/>
<path d="M22 29.3333V20.1667" stroke="#FFD701" stroke-width="2.75" stroke-linecap="round" stroke-linejoin="round"/>
<path d="M29.3333 29.3333V23.8333C29.3333 22.8609 28.947 21.9282 28.2594 21.2406C27.5718 20.553 26.6391 20.1667 25.6667 20.1667C24.6942 20.1667 23.7616 20.553 23.0739 21.2406C22.3863 21.9282 22 22.8609 22 23.8333" stroke="#FFD701" stroke-width="2.75" stroke-linecap="round" stroke-linejoin="round"/>
</g>
<defs>
<clipPath id="clip0_1_16">
<rect width="44" height="44" fill="white"/>
</clipPath>
</defs>
</svg>
